<svg xmlns="http://www.w3.org/2000/svg" viewBox="0 0 128 128">
  <!-- SVG created with Arrow, by QuiverAI (https://quiver.ai) -->
  <style type="text/css">
    .cls-0 {
      fill: #1e446a;
    }

    .cls-1 {
      fill: url(#SVGID_1_);
    }

    .cls-2 {
      fill: url(#SVGID_2_);
    }

    .cls-3 {
      fill: url(#SVGID_3_);
    }
  </style>
  <path
    class="cls-0"
    d="m33.7 34.9-30.2 24.8c-1.7 1.4-2.6 3.2-2.5 5.5 0 2.2 0.9 4 2.6 5.4l30.1 24.8c2-4.5 3.2-12.4-3.2-17.6l-14-10.9c-2.3-1.9-2.3-2.1-0.1-3.7l14.1-10.6c4.1-3.2 4.9-7.2 4.8-11.6-0.1-2.5-1.5-6-1.6-6.1z"
  />
  <linearGradient
    id="SVGID_1_"
    x1="93.37"
    x2="127.4"
    y1="65.17"
    y2="65.17"
    gradientUnits="userSpaceOnUse"
  >
    <stop stop-color="#0F54BC" offset="0" />
    <stop stop-color="#2287FB" offset="1" />
  </linearGradient>
  <path
    class="cls-1"
    d="m94.8 94.9 30.3-24.2c1.7-1.4 2.4-3.2 2.3-5.7-0.1-2-0.9-3.9-2.6-5.3l-30-24.7c-1.9 4.5-2.9 11.9 3.2 17.3l14.8 11.3c1.8 1.4 1.5 1.7 0.2 2.7l-14.8 11c-4.1 3.3-6.1 9-3.4 17.8v-0.2z"
  />
  <linearGradient
    id="SVGID_2_"
    x1="42.25"
    x2="86.94"
    y1="47.14"
    y2="25.78"
    gradientUnits="userSpaceOnUse"
  >
    <stop stop-color="#1559A6" offset="0" />
    <stop stop-color="#2287FB" offset="1" />
  </linearGradient>
  <path
    class="cls-2"
    d="m86.8 14.7c-1.7 0.6-4.5 1.7-6.3 2.4-5.5 1.9-10.9 3.4-14.4 4.6-5.4 1.8-10.3 5-13.7 8.5-5 5.4-10.1 13.8-10.1 26.5v15.2c2.5-4.4 6.2-8.9 9.9-12l2.1-1.9c0-9.8 3.5-17.8 11.8-22.4 4.4-2.5 8.2-3.1 12.5-4.8 4.1-1.7 8.7-5.4 8.2-16.1z"
  />
  <linearGradient
    id="SVGID_3_"
    x1="47.6"
    x2="69.64"
    y1="112.8"
    y2="60.76"
    gradientUnits="userSpaceOnUse"
  >
    <stop stop-color="#1E446A" offset="0" />
    <stop stop-color="#0C2E59" offset="1" />
  </linearGradient>
  <path
    class="cls-3"
    d="m66.6 69.1c-3.8 1.9-7.5 5.2-9.2 8.6-1.8 3.7-3 7.7-3 14.3v8.8c-0.1 4.1-1.8 7.2-4.8 9.5-1.8 1.4-4.7 2.5-7.4 3.1l0.1-22.5c0-11 4.3-19.4 10.5-25.9 3.1-3 7.9-6.7 15.8-9.1l2.8-0.9c4.2-1.3 10.7-3.4 15.4-6 0.3 5.7-0.9 10.7-4.5 13.7-3.4 2.7-8 3.2-13.2 5-0.8 0.3-1.7 0.8-2.5 1.2v0.2z"
  />
  <linearGradient
    id="SVGID_4_"
    x1="42.33"
    x2="86.91"
    y1="69.07"
    y2="48.61"
    gradientUnits="userSpaceOnUse"
  >
    <stop stop-color="#154F89" offset="0" />
    <stop stop-color="#227CF4" offset="1" />
  </linearGradient>
  <path
    fill="url(#SVGID_4_)"
    d="m86.8 48.9c-4.7 2.1-12.9 4.5-15.4 5.4-8 2.3-13.5 5-18.6 10-4 4.1-9.4 11.7-10.4 22.5v7c2.5-13.9 12-19.9 24.2-24.5 6.2-2.7 12-3.3 15.5-6.1s5.2-7.5 4.7-14.3z"
  />
</svg>
