<svg width="300" height="82" viewBox="0 0 300 82" fill="none" xmlns="http://www.w3.org/2000/svg">
<path d="M37.1109 17C34.7953 17.1252 32.2295 18.5645 31.0405 21.193L26.9101 31.0183C26.5972 31.7692 25.9088 32.5202 24.8449 32.5202H10.0131V47.7901H15.0196C18.1487 47.7901 20.8397 45.9752 21.9661 42.9087L25.4707 34.3977C25.9713 33.0834 26.5972 32.5828 28.0365 32.5828H60.3286V17H37.1109Z" fill="black"/>
<path d="M33.794 48.6036C33.4811 49.2295 32.9805 50.1682 31.7914 50.1682H0V65H22.7797C25.721 65 28.0991 63.4355 29.2256 60.9322L33.1056 51.6701C33.5437 50.4811 34.1695 50.1682 35.3585 50.1682H50.1904V34.8983H44.9335C42.2425 34.8983 39.2386 36.5254 37.8618 39.4667L33.794 48.6036Z" fill="black"/>
<path d="M81.8646 65H76.2966V20.84H102.153V26.216H81.8646V40.488H100.937V45.864H81.8646V65ZM110.631 65H105.191V20.84H110.631V65ZM130.61 65.64C121.394 65.64 114.098 58.408 114.098 49.192C114.098 39.976 121.394 32.744 130.61 32.744C139.826 32.744 147.122 39.976 147.122 49.192C147.122 58.408 139.826 65.64 130.61 65.64ZM130.61 60.52C137.01 60.52 141.682 55.784 141.682 49.192C141.682 42.6 137.01 37.864 130.61 37.864C124.21 37.864 119.538 42.6 119.538 49.192C119.538 55.784 124.21 60.52 130.61 60.52ZM162.931 65H157.427L146.355 33.384H152.115L160.307 57.832L168.563 33.384H174.067L182.387 57.832L190.515 33.384H196.211L185.139 65H179.635L171.251 40.616L162.931 65ZM216.132 77.544H200.004V72.424H216.26C220.292 72.424 222.852 70.504 222.852 65.576V60.072C220.228 63.208 216.196 65.064 211.652 65.064C202.308 65.064 195.46 57.96 195.46 48.872C195.46 39.848 202.692 32.744 211.716 32.744C216.26 32.744 220.42 34.6 223.044 37.928V33.384H228.292V65.32C228.292 73.896 222.788 77.544 216.132 77.544ZM211.844 59.944C218.244 59.944 222.852 55.272 222.852 48.872C222.852 42.472 218.244 37.864 211.844 37.864C205.444 37.864 200.9 42.472 200.9 48.872C200.9 55.272 205.444 59.944 211.844 59.944ZM247.863 65.64C238.711 65.64 231.735 58.408 231.735 49.192C231.735 39.976 238.583 32.744 247.479 32.744C256.567 32.744 263.031 39.528 263.031 48.744C263.031 49.448 263.031 50.28 262.903 51.048H237.239C237.943 56.936 242.167 60.648 247.863 60.648C252.471 60.648 255.927 58.216 257.591 54.568H263.223C260.791 61.416 254.839 65.64 247.863 65.64ZM247.415 37.736C242.295 37.736 238.391 41.128 237.367 46.376H257.399C256.823 41.384 252.983 37.736 247.415 37.736ZM272.506 65H267.066V33.384H272.314V36.968C274.426 34.344 277.882 32.744 282.106 32.744C289.914 32.744 295.482 38.184 295.482 46.888V65H290.042V47.336C290.042 41.384 286.778 37.864 281.53 37.864C276.154 37.864 272.506 41.576 272.506 47.336V65Z" fill="#020817"/>
</svg>
