<svg width="61" height="48" viewBox="0 0 61 48" fill="none" xmlns="http://www.w3.org/2000/svg">
<path d="M37.1109 0C34.7953 0.125163 32.2295 1.56454 31.0405 4.19296L26.9101 14.0183C26.5972 14.7692 25.9088 15.5202 24.8449 15.5202H10.0131V30.7901H15.0196C18.1487 30.7901 20.8397 28.9752 21.9661 25.9087L25.4707 17.3977C25.9713 16.0834 26.5972 15.5828 28.0365 15.5828H60.3286V0H37.1109Z" fill="black"/>
<path d="M33.794 31.6036C33.4811 32.2295 32.9805 33.1682 31.7914 33.1682H0V48H22.7797C25.721 48 28.0991 46.4355 29.2256 43.9322L33.1056 34.6701C33.5437 33.4811 34.1695 33.1682 35.3585 33.1682H50.1904V17.8983H44.9335C42.2425 17.8983 39.2386 19.5254 37.8618 22.4667L33.794 31.6036Z" fill="black"/>
</svg>
